<svg xmlns="http://www.w3.org/2000/svg" viewBox="0 0 120 120" role="img" aria-label="Pacha Purum">
  <path fill="#19352d" d="M61 37c2-13 12-24 31-31 1.6-.6 3.1.8 2.7 2.5-3.8 16.7-13.9 28.7-28 34.1-3.9 1.5-6.3 5.1-6.7 9.2-.1.8-.2 1.6-.2 2.4 0 8.5 1.6 14.7 4.7 18.6 3 3.8 7.8 6.9 14.3 9.3 7.8 2.9 13.9 6.4 18.1 10.5 3.6.2 7.1 1.5 10.4 4 1.1.9 1.4 2.4.6 3.6-.7 1.1-2.3 1.5-3.5.7-3.1-2.1-6.2-3-9.2-2.8-1.7.1-3.5-.2-5.1-.9l-6.5-2.8c1.4 6.2 4 11.7 7.8 16.4.9 1.1.7 2.7-.4 3.6-1.1.9-2.7.7-3.6-.4-5.3-6.4-8.5-14.1-9.7-23.2l-4.6-2c-.7-.3-1.5-.6-2.2-.8 1.2 8.1 1.3 15.7.4 22.7-.2 1.4-1.5 2.4-2.9 2.2-1.4-.2-2.4-1.5-2.2-2.9 1-7.5.8-15.7-.8-24.6-4.3-2.4-7.4-5.2-9.3-8.3-1.6 5.9-4.4 11.3-8.3 16.4 0 7.7-1.7 14.6-5.1 20.8-.7 1.2-2.2 1.7-3.5 1-1.2-.7-1.7-2.2-1-3.5 3.1-5.7 4.6-12.2 4.4-19.4 0-.6.2-1.2.6-1.7 3.1-3.9 5.4-8.2 6.9-12.9-4.2 2.7-8 5.9-11.4 9.6-1.6 8.9-5.2 16.4-10.9 22.4-1 1-2.6 1.1-3.6.1s-1.1-2.6-.1-3.6c5-5.3 8.2-11.9 9.6-19.8.1-.5.3-1 .7-1.4 3.5-3.9 7.4-7.2 11.7-10.1l-10 2.4c-8.4 2-15.2 5.3-20.4 9.8-1.1.9-2.7.8-3.6-.3-.9-1.1-.8-2.7.3-3.6 5.8-5.1 13.4-8.8 22.8-11l14-3.3c5-1.2 8.4-5.8 8.2-10.9-.1-1.7-.1-3.6-.1-5.4 0-8.6-3.9-13.8-11.8-15.7C30.7 30.2 22.8 18.4 19 8.5 18.4 6.9 19.8 5.4 21.4 6c21 7.3 34.2 17.7 39.6 31Z"/>
</svg>
